<svg xmlns="http://www.w3.org/2000/svg" viewBox="0 0 800 520">
<defs><linearGradient id="g" x1="0" y1="0" x2="1" y2="1"><stop stop-color="#eff6ff"/><stop offset="1" stop-color="#a8c8ff"/></linearGradient></defs>
<rect width="800" height="520" rx="34" fill="url(#g)"/>
<circle cx="650" cy="100" r="58" fill="#f6c857" opacity=".85"/><circle cx="118" cy="112" r="34" fill="#72d7b0" opacity=".9"/>
<rect x="198" y="120" width="404" height="250" rx="20" fill="#173f95"/><rect x="220" y="142" width="360" height="206" rx="10" fill="#f8fbff"/>
<rect x="280" y="187" width="240" height="18" rx="9" fill="#4d84ef"/><rect x="265" y="226" width="270" height="12" rx="6" fill="#b9c9e8"/><rect x="290" y="252" width="220" height="12" rx="6" fill="#b9c9e8"/><rect x="255" y="290" width="290" height="12" rx="6" fill="#b9c9e8"/>
<path d="M150 390h500l45 42H105z" fill="#3569cb"/><rect x="300" y="400" width="200" height="12" rx="6" fill="#9dbbfa"/>
<g transform="translate(60 310)"><rect width="120" height="86" rx="10" fill="#ffcc66"/><rect x="14" y="16" width="92" height="10" rx="5" fill="#fff5d8"/><rect x="14" y="38" width="75" height="8" rx="4" fill="#fff5d8"/><rect x="14" y="57" width="84" height="8" rx="4" fill="#fff5d8"/></g>
<g transform="translate(620 292)"><path d="M0 92 50 0l50 92z" fill="#ff7b7b"/><rect x="22" y="68" width="56" height="12" rx="6" fill="#ffd6d6"/></g>
<g fill="#244f9e"><circle cx="120" cy="210" r="8"/><circle cx="676" cy="212" r="8"/><path d="M95 235h50v12H95z"/><path d="M650 236h52v12h-52z"/></g>
</svg>
